<svg xmlns="http://www.w3.org/2000/svg" width="260" height="160" viewBox="0 0 260 160"><g transform="translate(-1150 -2757)"><rect width="260" height="160" rx="30" transform="translate(1150 2757)" fill="none"/><path d="M26.325,1.05a26.178,26.178,0,0,1-9.45-1.538,17.6,17.6,0,0,1-6.562-4.275,17.077,17.077,0,0,1-3.825-6.525A26.811,26.811,0,0,1,5.25-19.65V-51.975h11.7v31.35a17.634,17.634,0,0,0,.712,5.363,9.882,9.882,0,0,0,1.95,3.6,6.96,6.96,0,0,0,3,1.988,11.919,11.919,0,0,0,3.862.6A9.457,9.457,0,0,0,33.413-11.7q2.663-2.625,2.663-8.925v-31.35h11.7V-19.65a26.43,26.43,0,0,1-1.275,8.4,17.19,17.19,0,0,1-3.9,6.563A17.489,17.489,0,0,1,35.925-.45,27.649,27.649,0,0,1,26.325,1.05Z" transform="translate(1339 2835)" fill="#707070"/><g transform="translate(1002 -566)"><g transform="translate(290 3364)" fill="#862609" stroke="#862609" stroke-width="1"><rect width="23" height="79" stroke="none"/><rect x="0.5" y="0.5" width="22" height="78" fill="none"/></g><g transform="translate(244 3364)" fill="#862609" stroke="#862609" stroke-width="1"><rect width="23" height="79" stroke="none"/><rect x="0.5" y="0.5" width="22" height="78" fill="none"/></g></g></g></svg>