<svg xmlns="http://www.w3.org/2000/svg" width="260" height="160" viewBox="0 0 260 160"><g transform="translate(-1140 -2715)"><rect width="260" height="160" rx="30" transform="translate(1140 2715)" fill="none"/><g transform="translate(1305 2756) rotate(90)" fill="#862609"><path d="M 78.13763427734375 68.5 L 0.8623676300048828 68.5 L 39.5 1.006414294242859 L 78.13763427734375 68.5 Z" stroke="none"/><path d="M 39.5 2.012809753417969 L 1.724723815917969 68 L 77.27527618408203 68 L 39.5 2.012809753417969 M 39.5 0 L 79 69 L 0 69 L 39.5 0 Z" stroke="none" fill="#862609"/></g><path d="M26.325,1.05a26.178,26.178,0,0,1-9.45-1.538,17.6,17.6,0,0,1-6.562-4.275,17.077,17.077,0,0,1-3.825-6.525A26.811,26.811,0,0,1,5.25-19.65V-51.975h11.7v31.35a17.634,17.634,0,0,0,.712,5.363,9.882,9.882,0,0,0,1.95,3.6,6.96,6.96,0,0,0,3,1.988,11.919,11.919,0,0,0,3.862.6A9.457,9.457,0,0,0,33.413-11.7q2.663-2.625,2.663-8.925v-31.35h11.7V-19.65a26.43,26.43,0,0,1-1.275,8.4,17.19,17.19,0,0,1-3.9,6.563A17.489,17.489,0,0,1,35.925-.45,27.649,27.649,0,0,1,26.325,1.05Z" transform="translate(1329 2793)" fill="#707070"/></g></svg>